<svg width="98" height="91" viewBox="0 0 98 91" fill="none" xmlns="http://www.w3.org/2000/svg">
<path d="M49 0C36.0089 0.0135651 23.554 4.81166 14.3679 13.3416C5.18179 21.8716 0.0146085 33.4368 0 45.5C0.0220869 57.5611 5.19167 69.1222 14.3762 77.6507C23.5607 86.1792 36.0112 90.9795 49 91C61.9956 91 74.459 86.2063 83.6482 77.6734C92.8375 69.1405 98 57.5674 98 45.5C98 33.4327 92.8375 21.8595 83.6482 13.3266C74.459 4.79374 61.9956 0 49 0V0ZM78.8041 71.7547C76.0519 66.6008 71.8035 62.2637 66.5381 59.2325C61.2726 56.2014 55.1998 54.5969 49.0046 54.6C42.8094 54.6031 36.7384 56.2137 31.4765 59.2502C26.2146 62.2866 21.9713 66.6281 19.2251 71.7847C11.8976 64.7288 7.81443 55.3021 7.84 45.5C7.84 35.3634 12.1765 25.642 19.8955 18.4744C27.6145 11.3067 38.0837 7.28 49 7.28C59.9163 7.28 70.3855 11.3067 78.1045 18.4744C85.8235 25.642 90.16 35.3634 90.16 45.5C90.1844 55.2878 86.1127 64.7017 78.8041 71.7547V71.7547ZM49 18.2C45.5111 18.2 42.1006 19.1607 39.1997 20.9605C36.2989 22.7604 34.0379 25.3186 32.7028 28.3116C31.3676 31.3047 31.0183 34.5982 31.6989 37.7756C32.3796 40.953 34.0596 43.8716 36.5266 46.1624C38.9936 48.4532 42.1368 50.0132 45.5586 50.6453C48.9804 51.2773 52.5272 50.9529 55.7505 49.7131C58.9738 48.4734 61.7288 46.3739 63.6671 43.6802C65.6054 40.9866 66.64 37.8197 66.64 34.58C66.64 32.4289 66.1837 30.299 65.2972 28.3116C64.4107 26.3243 63.1114 24.5186 61.4734 22.9976C59.8353 21.4766 57.8907 20.27 55.7505 19.4469C53.6103 18.6237 51.3165 18.2 49 18.2V18.2Z" fill="#444444"/>
</svg>
